<?xml version="1.0" standalone="no"?>
<!DOCTYPE svg PUBLIC "-//W3C//DTD SVG 20010904//EN"
 "http://www.w3.org/TR/2001/REC-SVG-20010904/DTD/svg10.dtd">
<svg version="1.0" xmlns="http://www.w3.org/2000/svg"
 width="736.000000pt" height="179.000000pt" viewBox="0 0 736.000000 179.000000"
 preserveAspectRatio="xMidYMid meet">

<g transform="translate(0.000000,179.000000) scale(0.100000,-0.100000)"
fill="#000000" stroke="none">
<path d="M765 1774 c-106 -21 -139 -30 -200 -54 -111 -44 -192 -97 -283 -184
-182 -175 -272 -385 -272 -635 0 -231 89 -449 252 -613 103 -105 215 -173 368
-224 80 -26 95 -28 255 -28 160 0 175 2 255 28 153 51 265 119 368 224 244
247 318 612 191 942 -71 186 -239 369 -421 458 -83 40 -169 69 -249 81 -61 10
-222 13 -264 5z m324 -55 c91 -21 215 -78 291 -134 73 -54 183 -175 230 -254
195 -327 141 -750 -130 -1021 -330 -330 -860 -330 -1190 0 -322 322 -330 838
-17 1166 85 91 140 132 243 183 177 88 368 108 573 60z"/>
<path d="M666 1694 c-9 -22 -8 -24 9 -18 10 4 15 0 15 -12 0 -11 5 -26 10 -34
7 -11 9 -4 7 25 -3 50 -28 74 -41 39z"/>
<path d="M716 1671 c-3 -4 1 -17 9 -27 8 -11 14 -14 15 -6 0 7 14 12 33 13 21
1 25 3 12 6 -11 3 -26 10 -32 15 -10 8 -13 6 -13 -6 0 -10 -5 -14 -10 -11 -6
4 -8 11 -5 16 4 5 4 9 1 9 -3 0 -7 -4 -10 -9z"/>
<path d="M1147 1640 c-14 -11 -35 -20 -48 -20 -18 0 -20 -3 -11 -12 9 -9 7
-17 -11 -36 l-22 -24 25 7 c14 4 32 13 40 20 10 10 20 11 33 4 19 -11 23 1 5
19 -9 9 -7 16 7 32 25 28 14 35 -18 10z"/>
<path d="M664 1623 c-1 -10 -3 -23 -5 -29 -2 -7 0 -13 6 -14 5 0 13 13 16 29
4 21 3 31 -5 31 -6 0 -12 -8 -12 -17z"/>
<path d="M738 1610 c-2 -6 -13 -12 -26 -13 -23 -1 -26 -10 -12 -42 8 -19 9
-19 9 3 1 13 5 20 11 17 6 -3 13 1 16 9 9 25 22 19 27 -11 4 -22 4 -20 3 6 -1
33 -20 54 -28 31z"/>
<path d="M627 1560 c3 -25 10 -49 15 -55 6 -6 7 5 2 30 -10 58 -24 78 -17 25z"/>
<path d="M1134 1534 c3 -9 6 -18 6 -20 0 -3 4 -3 10 1 11 7 2 35 -12 35 -6 0
-7 -7 -4 -16z"/>
<path d="M755 1524 c-302 -62 -520 -348 -502 -656 10 -166 79 -311 201 -426
75 -70 145 -112 241 -144 101 -33 279 -33 380 0 96 32 166 74 241 144 82 77
131 152 167 256 80 233 23 477 -153 653 -153 153 -364 216 -575 173z m279 -29
c220 -57 394 -235 446 -455 18 -76 16 -212 -4 -289 -53 -205 -220 -374 -431
-437 -81 -24 -239 -24 -320 0 -211 63 -378 232 -431 437 -20 77 -22 213 -4
289 51 218 225 396 442 454 71 20 229 20 302 1z"/>
<path d="M776 1424 c-9 -8 -16 -19 -16 -24 0 -16 40 -31 63 -24 19 6 20 5 8
-9 -9 -12 -21 -15 -39 -10 -17 4 -23 2 -18 -6 9 -15 59 -14 74 1 15 15 15 61
0 76 -17 17 -54 15 -72 -4z m47 -19 c1 -5 -6 -11 -15 -13 -11 -2 -18 3 -18 13
0 17 30 18 33 0z"/>
<path d="M902 1428 c-19 -19 -15 -66 7 -78 31 -16 49 -12 67 15 24 36 6 75
-34 75 -15 0 -33 -5 -40 -12z m52 -23 c8 -21 -3 -45 -20 -45 -9 0 -14 11 -14
30 0 32 23 42 34 15z"/>
<path d="M1047 1402 l32 -17 -29 -17 c-17 -9 -30 -24 -30 -33 0 -22 13 -19 40
10 13 14 29 25 36 25 29 0 22 20 -12 35 -50 21 -77 19 -37 -3z"/>
<path d="M665 1384 c-18 -28 -13 -43 8 -25 12 9 17 5 27 -19 12 -29 24 -38 33
-22 6 10 -30 92 -41 92 -6 0 -17 -12 -27 -26z"/>
<path d="M1125 1317 c44 -26 141 -136 164 -185 l25 -52 -32 -33 c-40 -41 -52
-100 -52 -256 -1 -109 -2 -114 -16 -88 -12 21 -20 26 -38 21 -13 -3 -26 -2
-29 3 -9 14 23 143 35 143 6 0 8 12 5 27 -6 33 27 131 50 149 17 11 16 13 -9
19 -15 4 -34 2 -44 -3 -14 -8 -24 -4 -46 20 -18 19 -35 28 -50 26 -34 -5 -28
-30 9 -42 18 -6 34 -14 35 -18 2 -4 -13 -17 -32 -30 -25 -17 -48 -49 -83 -118
-46 -90 -49 -99 -45 -160 3 -50 10 -74 32 -107 24 -36 26 -44 14 -62 -20 -32
-36 -25 -43 19 -5 31 -16 48 -46 72 -27 22 -39 39 -39 57 0 34 26 129 39 145
6 7 8 16 5 19 -4 3 3 38 15 76 17 55 27 74 49 85 29 15 29 15 -26 32 -7 2 -34
-1 -58 -7 -43 -11 -47 -10 -73 15 -33 31 -61 34 -61 6 0 -13 7 -20 20 -20 35
0 33 -26 -4 -77 -83 -116 -93 -179 -45 -284 34 -73 33 -102 -3 -97 -17 2 -24
11 -28 33 -4 26 -10 30 -43 33 -26 2 -37 8 -37 19 0 27 42 158 53 164 5 4 7
14 4 23 -9 23 20 98 46 118 l22 17 -28 10 c-16 6 -43 11 -62 11 -24 0 -35 5
-40 19 -7 23 -32 35 -41 20 -3 -6 2 -19 12 -30 17 -19 16 -21 -38 -77 -60 -62
-78 -101 -78 -169 0 -58 22 -104 63 -128 l32 -19 -45 -8 c-41 -7 -47 -6 -67
17 -34 39 -38 72 -19 148 14 54 16 87 11 162 l-7 94 27 7 c14 4 38 1 52 -5 14
-7 28 -9 31 -6 12 11 -19 55 -43 61 -30 7 -31 15 -5 39 25 23 25 40 0 65 -28
28 -55 27 -40 0 16 -30 5 -52 -41 -90 l-42 -33 6 -101 c3 -56 1 -149 -6 -207
-13 -129 -9 -141 80 -251 40 -49 61 -82 57 -92 -7 -17 11 -22 21 -6 4 6 26 0
56 -16 28 -13 75 -30 105 -36 42 -8 54 -15 54 -29 0 -25 16 -24 23 1 5 18 14
20 116 20 106 0 111 -1 111 -21 0 -18 2 -19 15 -9 8 7 15 19 15 26 0 8 8 14
18 14 75 1 238 136 272 227 26 69 25 88 -5 188 -36 118 -36 195 1 164 9 -7 14
-32 14 -73 1 -49 3 -57 12 -42 18 32 30 175 17 215 -22 70 -153 206 -226 237
-39 17 -55 17 -28 1z m-175 -277 c0 -6 -10 -44 -22 -85 -15 -52 -27 -75 -38
-75 -23 0 -35 12 -55 49 -21 42 -10 72 37 101 35 21 78 27 78 10z m230 -63
c-21 -87 -34 -102 -64 -71 -28 27 -19 63 26 108 48 47 56 40 38 -37z m140 43
c0 -11 -7 -23 -16 -27 -9 -3 -20 -15 -24 -27 -7 -18 -9 -18 -9 -3 -1 23 27 77
39 77 6 0 10 -9 10 -20z m-610 -13 c0 -7 -9 -37 -19 -67 -22 -62 -45 -74 -72
-39 -30 38 -24 76 14 99 36 23 77 26 77 7z m-112 -122 c12 -14 31 -25 42 -25
25 0 25 -6 -1 -91 -24 -80 -39 -85 -76 -30 -35 52 -30 171 7 171 4 0 16 -11
28 -25z m227 -5 c10 -11 26 -20 36 -20 10 0 21 -5 24 -11 10 -16 -16 -139 -29
-139 -40 0 -86 73 -86 137 0 58 21 70 55 33z m265 5 c7 -8 18 -15 24 -15 6 0
16 -4 23 -8 11 -7 10 -21 -12 -119 -8 -33 -59 -32 -81 2 -16 25 -15 51 7 123
12 35 20 39 39 17z m215 -163 c0 -82 -2 -91 -29 -126 -35 -46 -42 -42 -16 9
16 31 20 59 20 134 0 75 3 92 12 83 8 -8 13 -45 13 -100z m-80 -87 c5 -22 0
-39 -17 -65 -26 -39 -105 -88 -118 -74 -10 10 23 159 40 179 31 37 85 15 95
-40z m-125 26 c0 -26 -10 -51 -21 -51 -13 0 -31 40 -25 56 8 22 46 18 46 -5z
m-252 -20 c2 -13 -1 -28 -7 -34 -8 -8 -11 -7 -11 4 0 7 -3 25 -7 38 -4 18 -2
23 8 19 8 -2 16 -15 17 -27z m-160 7 c25 -32 23 -56 -9 -92 -34 -39 -45 -42
-71 -22 -15 11 -16 18 -7 45 6 17 17 31 25 31 10 0 13 7 8 25 -5 22 -3 25 19
25 13 0 29 -6 35 -12z m226 -19 c14 -11 26 -29 26 -39 0 -11 5 -31 12 -44 14
-33 -9 -61 -64 -78 -55 -16 -66 -3 -50 60 7 26 17 64 23 85 11 43 17 45 53 16z
m-335 -8 c16 -11 6 -51 -14 -51 -14 0 -45 37 -45 52 0 11 42 10 59 -1z m221
-59 c19 -16 21 -23 13 -47 -5 -16 -14 -30 -20 -32 -8 -3 -43 69 -43 90 0 13
28 7 50 -11z m276 -17 c-10 -38 -25 -75 -31 -75 -4 0 -15 5 -26 10 -29 16 -23
45 14 69 42 27 50 26 43 -4z m-341 -25 c8 -16 15 -31 15 -35 0 -8 -44 -6 -59
4 -12 8 -12 13 3 35 9 14 18 26 21 26 2 0 11 -13 20 -30z m240 -51 c-4 -5 -13
-9 -22 -9 -13 0 -13 3 -3 15 13 15 35 11 25 -6z"/>
<path d="M263 1413 c-18 -20 -33 -38 -33 -40 0 -9 84 -93 92 -93 6 0 -6 20
-26 45 l-37 45 18 30 c9 16 22 30 28 30 16 0 76 -60 70 -70 -3 -5 0 -12 6 -16
9 -5 10 1 5 22 -7 29 -61 85 -81 83 -5 0 -25 -16 -42 -36z"/>
<path d="M1486 1431 c-3 -5 -14 -7 -24 -4 -10 2 -25 -3 -33 -13 -10 -13 -11
-16 -1 -10 15 9 82 -49 82 -71 0 -7 5 -13 10 -13 13 0 13 6 0 31 -10 17 -7 19
20 19 38 0 38 6 -2 42 -34 30 -43 33 -52 19z m20 -23 c5 -7 2 -9 -7 -4 -8 4
-5 0 5 -8 16 -13 17 -16 4 -16 -18 0 -41 24 -31 33 10 10 21 8 29 -5z"/>
<path d="M1440 1374 c0 -5 5 -15 12 -22 9 -9 9 -12 1 -12 -7 0 -15 5 -18 10
-3 6 -11 10 -18 10 -8 0 -8 -3 1 -12 20 -20 14 -31 -13 -24 -14 4 -25 2 -25
-4 0 -11 2 -12 52 -15 22 -1 35 2 31 8 -3 5 1 13 8 18 11 7 10 13 -8 31 -13
12 -23 18 -23 12z"/>
<path d="M311 1356 c-9 -11 -9 -16 0 -21 10 -7 28 10 29 28 0 12 -17 8 -29 -7z"/>
<path d="M187 900 c5 -20 -9 -24 -89 -23 -10 0 -18 -5 -18 -11 0 -7 22 -10 60
-8 59 4 60 4 60 33 0 16 -4 29 -9 29 -5 0 -7 -9 -4 -20z"/>
<path d="M1560 906 c0 -9 6 -16 13 -16 7 0 22 -7 33 -15 18 -14 18 -15 -13
-27 -18 -7 -33 -18 -33 -25 0 -17 3 -17 45 8 19 12 44 19 55 16 11 -3 20 -1
20 4 0 5 -9 9 -21 9 -12 0 -39 14 -60 31 -29 23 -39 27 -39 15z"/>
<path d="M185 830 c-3 -5 -1 -10 4 -10 6 0 11 5 11 10 0 6 -2 10 -4 10 -3 0
-8 -4 -11 -10z"/>
<path d="M126 756 c-15 -14 -26 -33 -26 -43 0 -14 3 -12 13 7 25 50 98 51 105
2 5 -31 -51 -58 -86 -42 -22 10 -24 9 -12 -4 19 -24 76 -20 94 6 29 41 13 82
-36 93 -21 5 -33 1 -52 -19z"/>
<path d="M1547 763 c-4 -3 -7 -11 -7 -17 0 -6 5 -5 12 2 6 6 9 14 7 17 -3 3
-9 2 -12 -2z"/>
<path d="M1536 722 c-4 -3 -6 -12 -6 -21 0 -12 2 -13 8 -4 6 10 17 10 47 2 22
-6 45 -15 51 -20 8 -6 13 -3 17 10 3 12 0 18 -7 15 -6 -2 -33 2 -58 10 -26 7
-49 11 -52 8z"/>
<path d="M1520 676 c0 -2 7 -7 16 -10 8 -3 12 -2 9 4 -6 10 -25 14 -25 6z"/>
<path d="M245 628 c-5 -5 -19 -15 -30 -23 -20 -14 -19 -14 2 -8 l23 5 -25 -56
-25 -56 50 25 c28 14 55 23 60 20 5 -3 7 1 4 9 -5 13 -10 12 -37 -5 -46 -27
-48 -24 -26 26 21 47 23 80 4 63z"/>
<path d="M1496 623 c-4 -9 -5 -16 -4 -17 2 -1 26 -12 53 -25 55 -26 58 -26 62
-14 2 5 -13 15 -33 22 -20 7 -44 21 -54 31 -16 16 -19 17 -24 3z"/>
<path d="M1440 525 c-6 -8 -10 -22 -8 -32 4 -19 31 -22 81 -8 23 6 27 4 27
-15 0 -13 -8 -24 -20 -27 -11 -3 -17 -10 -14 -15 9 -15 44 23 44 48 0 27 -30
40 -59 25 -11 -6 -27 -11 -35 -11 -24 0 -19 29 7 40 15 6 17 9 6 9 -9 1 -22
-6 -29 -14z"/>
<path d="M310 482 c-53 -16 -65 -68 -25 -108 24 -24 26 -24 49 -7 13 10 21 23
19 30 -3 8 -11 5 -24 -8 -24 -24 -36 -24 -50 2 -23 44 49 99 89 67 15 -11 16
-11 4 3 -15 19 -40 28 -62 21z"/>
<path d="M380 424 c0 -8 5 -12 10 -9 6 4 8 11 5 16 -9 14 -15 11 -15 -7z"/>
<path d="M1337 405 c-18 -16 -23 -25 -13 -25 8 0 30 -18 49 -40 31 -37 35 -39
48 -23 8 9 9 14 3 10 -6 -4 -20 3 -30 14 -19 21 -19 21 23 18 25 -2 48 2 55 9
11 11 10 12 -5 7 -31 -12 -64 2 -63 27 1 32 -32 34 -67 3z m49 0 c4 -8 3 -22
0 -31 -6 -15 -8 -15 -26 1 -15 14 -17 21 -9 32 15 17 28 17 35 -2z"/>
<path d="M423 333 c-40 -53 -30 -56 21 -4 25 26 33 40 24 43 -7 3 -27 -14 -45
-39z"/>
<path d="M1227 326 c-16 -13 -15 -17 16 -64 l33 -51 32 21 c18 11 32 25 32 31
0 8 -3 8 -8 2 -4 -5 -15 -16 -24 -23 -15 -12 -21 -8 -47 29 -24 32 -28 45 -20
55 14 17 9 17 -14 0z"/>
<path d="M520 320 c0 -6 -11 -28 -25 -51 -14 -22 -23 -44 -19 -50 3 -6 15 7
26 28 11 21 28 45 39 54 16 15 17 18 3 23 -21 8 -24 8 -24 -4z"/>
<path d="M365 300 c3 -5 8 -10 11 -10 2 0 4 5 4 10 0 6 -5 10 -11 10 -5 0 -7
-4 -4 -10z"/>
<path d="M1280 295 c-11 -13 -10 -14 4 -9 9 3 16 10 16 15 0 13 -6 11 -20 -6z"/>
<path d="M1155 281 c-3 -5 -1 -12 5 -16 5 -3 10 1 10 9 0 18 -6 21 -15 7z"/>
<path d="M665 206 c-7 -55 -2 -76 17 -76 7 0 6 5 -2 15 -9 11 -9 25 3 65 12
41 12 50 2 50 -9 0 -16 -19 -20 -54z"/>
<path d="M1070 254 c0 -8 71 -88 82 -92 4 -2 8 11 7 30 0 24 -2 28 -8 14 -6
-16 -10 -14 -39 18 -30 35 -42 43 -42 30z"/>
<path d="M760 229 c0 -5 5 -7 10 -4 6 3 10 8 10 11 0 2 -4 4 -10 4 -5 0 -10
-5 -10 -11z"/>
<path d="M979 226 c6 -7 14 -34 17 -60 4 -29 12 -46 20 -46 10 0 11 6 4 25 -5
13 -10 40 -12 60 -2 27 -6 35 -21 35 -15 0 -17 -3 -8 -14z"/>
<path d="M825 170 c0 -33 3 -60 8 -60 4 0 7 21 7 48 l1 47 20 -27 c11 -14 28
-37 38 -50 l19 -23 3 63 c2 34 1 62 -3 62 -4 0 -8 -19 -10 -42 l-3 -43 -30 42
c-16 24 -34 43 -40 43 -6 0 -10 -27 -10 -60z"/>
<path d="M751 194 c0 -11 3 -14 6 -6 3 7 2 16 -1 19 -3 4 -6 -2 -5 -13z"/>
<path d="M732 150 c-7 -11 -8 -20 -3 -20 9 0 24 30 18 36 -1 2 -8 -6 -15 -16z"/>
<path d="M7080 1715 c-66 -35 -100 -43 -100 -25 0 14 -32 12 -53 -5 -20 -15
-47 -10 -60 12 -15 25 -42 12 -71 -33 -26 -41 -27 -46 -12 -62 13 -15 13 -24
4 -54 -13 -45 -3 -128 17 -128 18 0 30 24 40 75 8 45 41 115 55 115 20 0 19
-21 -4 -55 -33 -48 -44 -121 -23 -142 14 -15 18 -15 39 -1 13 9 43 40 66 70
34 45 42 63 42 97 0 38 3 43 33 56 65 27 87 29 87 9 -1 -33 -25 -56 -52 -49
-27 7 -24 11 -62 -96 -9 -25 -30 -67 -46 -92 l-30 -47 -104 0 c-74 0 -107 4
-115 13 -8 10 -6 40 5 113 8 54 17 120 21 145 9 76 -27 116 -61 67 -13 -18
-16 -52 -16 -159 0 -74 -3 -138 -6 -142 -4 -3 -22 0 -41 8 -20 8 -42 15 -49
15 -27 0 -42 -54 -45 -170 -4 -113 -4 -115 19 -118 19 -3 27 6 52 62 17 36 31
66 33 66 1 0 40 7 87 15 47 8 106 15 132 15 27 0 88 7 137 15 60 11 105 13
138 8 43 -8 48 -11 51 -37 3 -26 6 -28 39 -21 60 11 82 23 103 57 32 53 27 64
-30 71 -27 3 -104 3 -171 0 l-121 -6 12 24 c23 44 42 59 76 59 25 0 34 5 39
23 4 12 17 33 30 47 74 83 92 146 54 194 -28 35 -60 33 -139 -9z m-150 -214
c0 -6 -4 -13 -10 -16 -5 -3 -10 1 -10 9 0 9 5 16 10 16 6 0 10 -4 10 -9z"/>
<path d="M4250 1689 c-62 -45 -149 -137 -156 -165 -13 -52 17 -57 91 -15 82
46 165 62 165 30 0 -5 -22 -39 -49 -76 -27 -38 -54 -85 -60 -105 -24 -74 -67
-78 -87 -7 -17 59 -36 76 -58 54 -25 -25 -30 -63 -15 -108 13 -40 13 -40 -21
-68 -19 -16 -55 -43 -80 -61 -103 -75 -122 -228 -25 -204 51 13 123 94 173
196 41 82 53 98 89 118 73 40 80 5 11 -59 -40 -37 -49 -73 -22 -83 37 -14 89
48 120 145 21 65 39 89 71 89 22 0 23 -3 23 -80 0 -88 16 -142 48 -159 33 -18
41 -13 52 30 12 44 7 55 -25 61 -16 3 -22 15 -28 66 -11 77 -7 87 39 109 42
21 64 47 49 62 -6 6 -45 -7 -104 -35 -102 -48 -119 -52 -127 -30 -8 22 32 70
98 118 67 49 71 70 15 79 -20 3 -41 9 -45 13 -4 5 -7 31 -7 59 l0 52 -45 3
c-38 2 -53 -2 -90 -29z m-180 -521 c0 -14 -30 -48 -42 -48 -13 0 -9 22 9 42
18 21 33 23 33 6z"/>
<path d="M3892 1634 c-52 -36 -5 -134 63 -134 18 0 18 3 4 55 -14 55 -30 95
-38 95 -4 0 -17 -7 -29 -16z"/>
<path d="M5687 1632 c-44 -27 -104 -158 -126 -275 -10 -53 -20 -100 -23 -102
-3 -3 -36 -9 -74 -14 -125 -16 -184 -56 -184 -125 0 -21 6 -26 33 -31 36 -7
103 7 150 32 16 8 31 12 34 9 8 -8 -25 -101 -84 -233 -30 -68 -53 -131 -51
-140 2 -11 14 -19 30 -21 20 -2 31 4 49 30 12 18 46 58 74 88 61 65 78 96 115
205 l27 80 104 6 c57 4 105 7 105 8 7 5 34 85 34 98 0 13 -7 15 -52 8 -29 -5
-82 -9 -118 -9 l-65 -1 3 28 c2 16 21 88 43 159 57 184 49 246 -24 200z"/>
<path d="M2914 1595 c-22 -14 -56 -25 -75 -26 -84 -3 -256 14 -284 28 -112 56
-161 -125 -167 -627 -3 -184 -1 -209 15 -233 22 -34 46 -45 58 -26 5 8 9 53 9
101 0 48 6 138 14 200 8 62 17 154 20 205 7 97 29 188 52 214 9 10 39 18 79
22 35 3 109 14 164 23 131 22 163 15 199 -38 27 -41 27 -42 30 -244 3 -191 2
-206 -19 -254 -20 -47 -25 -51 -49 -46 -36 7 -70 -18 -70 -50 0 -34 39 -124
54 -124 14 0 118 158 142 216 40 96 53 264 33 441 -24 213 -92 286 -205 218z"/>
<path d="M3840 1448 c-7 -24 -20 -58 -31 -76 -21 -37 -25 -62 -8 -62 19 0 79
40 89 60 15 28 12 73 -6 98 -22 32 -32 27 -44 -20z"/>
<path d="M4578 1369 c-41 -21 -71 -68 -66 -101 4 -29 228 -148 280 -148 56 0
90 16 86 41 -2 18 -17 25 -78 41 -93 24 -158 52 -166 72 -3 8 2 28 11 45 12
24 13 36 5 51 -13 25 -25 25 -72 -1z"/>
<path d="M2666 1345 c-23 -24 -20 -43 12 -58 78 -40 125 -28 120 31 l-3 37
-56 3 c-42 2 -61 -1 -73 -13z"/>
<path d="M3760 1281 c0 -68 -39 -260 -77 -375 -38 -116 -44 -149 -40 -190 7
-65 25 -106 48 -106 27 0 34 22 54 155 9 66 28 152 41 190 21 65 22 80 16 200
-6 112 -9 130 -24 133 -10 2 -18 -1 -18 -7z"/>
<path d="M7025 1201 c-11 -5 -63 -12 -115 -16 -52 -4 -108 -14 -124 -22 -26
-13 -28 -18 -23 -55 3 -22 8 -42 11 -45 11 -11 138 16 158 34 16 15 21 15 28
3 23 -36 2 -95 -37 -105 -15 -4 -58 -11 -95 -15 -104 -12 -163 -70 -94 -93 21
-7 51 -4 115 12 86 21 125 20 134 -3 7 -18 -27 -113 -49 -137 -32 -36 -74 -52
-121 -46 -23 2 -43 0 -43 -5 0 -5 11 -31 25 -58 34 -68 57 -67 146 5 80 65
109 113 109 183 0 26 5 53 12 60 7 7 35 12 63 12 55 0 75 12 75 45 0 34 -20
45 -82 45 -80 0 -88 17 -37 85 44 58 46 66 23 100 -17 25 -42 30 -79 16z"/>
<path d="M2649 1151 c-60 -8 -79 -25 -79 -68 0 -93 77 -164 125 -116 11 11 15
26 11 45 -8 41 10 34 34 -13 23 -44 35 -45 96 -8 25 15 54 55 54 73 0 2 -28
25 -62 50 -65 49 -77 51 -179 37z"/>
<path d="M4145 1070 c-23 -25 -65 -209 -65 -286 0 -55 8 -74 31 -74 25 0 35
23 43 99 8 80 27 113 64 109 25 -3 27 -6 30 -60 2 -47 6 -58 20 -58 23 1 43
18 71 60 38 56 104 120 123 120 51 0 48 -108 -7 -232 -49 -110 -51 -118 -31
-118 19 0 55 55 110 170 49 101 53 167 17 238 -18 35 -26 42 -52 42 -45 0 -64
-14 -97 -73 -16 -29 -37 -59 -46 -66 -14 -12 -16 -9 -16 30 0 71 -10 77 -67
41 -70 -45 -85 -43 -83 11 2 23 2 48 1 55 -2 18 -26 15 -46 -8z"/>
<path d="M5772 988 c-21 -21 -14 -73 18 -116 31 -44 104 -92 137 -92 26 0 33
18 33 84 0 60 -8 70 -87 110 -58 29 -83 32 -101 14z"/>
<path d="M2722 373 c-71 -35 -109 -116 -98 -207 11 -96 77 -158 166 -158 73 0
119 30 155 101 25 50 18 156 -15 204 -48 70 -136 96 -208 60z m133 -37 c41
-41 57 -139 35 -218 -13 -45 -62 -88 -99 -88 -65 0 -105 68 -104 176 0 63 11
93 46 132 29 31 90 30 122 -2z"/>
<path d="M3469 367 c-94 -50 -128 -192 -67 -285 14 -21 43 -47 65 -57 48 -23
148 -23 192 -1 30 16 31 18 31 92 0 57 4 76 15 80 34 13 11 24 -50 24 -63 0
-86 -12 -45 -23 18 -5 20 -14 20 -81 l0 -75 -35 -7 c-78 -14 -136 31 -155 121
-9 45 -9 65 4 109 20 69 52 96 113 96 45 0 78 -22 110 -75 10 -17 12 -12 12
37 1 52 -12 85 -21 56 -3 -9 -12 -9 -38 0 -51 18 -102 14 -151 -11z"/>
<path d="M6251 364 c-25 -21 -31 -33 -31 -66 0 -56 12 -73 90 -123 38 -24 74
-53 80 -65 37 -70 -79 -108 -130 -43 -11 14 -20 34 -20 44 0 11 -4 19 -10 19
-6 0 -10 -29 -10 -66 0 -57 2 -65 15 -54 10 9 26 9 60 2 64 -14 111 1 135 41
39 63 21 110 -57 158 -31 19 -70 46 -87 61 -30 26 -30 28 -16 55 31 56 120 31
135 -37 11 -52 25 -33 25 35 0 64 -6 75 -27 54 -8 -8 -17 -8 -31 0 -36 19 -88
13 -121 -15z"/>
<path d="M2316 364 c-10 -25 -7 -74 4 -74 6 0 10 6 10 14 0 25 30 46 66 46
l35 0 -3 -157 c-3 -155 -3 -158 -25 -161 -13 -2 -23 -8 -23 -13 0 -5 34 -9 75
-9 43 0 75 4 75 10 0 6 -7 10 -15 10 -27 0 -35 39 -35 179 l0 141 40 0 c35 0
43 -5 60 -32 l20 -33 0 48 0 47 -139 0 c-117 0 -140 -2 -145 -16z"/>
<path d="M2975 370 c3 -5 12 -10 19 -10 7 0 20 -8 29 -18 14 -15 17 -42 17
-149 0 -145 -3 -163 -31 -163 -10 0 -19 -4 -19 -10 0 -6 27 -10 60 -10 58 0
80 12 40 23 -19 5 -20 14 -20 128 0 68 4 119 8 114 5 -6 53 -67 107 -137 54
-71 102 -128 107 -128 4 0 8 76 8 170 l0 169 28 15 c26 15 25 15 -43 15 -59
-1 -66 -2 -42 -11 l27 -10 0 -114 c0 -63 -2 -114 -4 -114 -2 0 -47 56 -100
125 l-97 125 -50 0 c-31 0 -48 -4 -44 -10z"/>
<path d="M3785 370 c3 -5 12 -10 19 -10 21 0 26 -34 26 -175 0 -147 -7 -171
-37 -129 -24 33 -53 27 -53 -11 0 -50 71 -54 115 -5 18 19 20 39 23 166 l3
144 27 15 c26 13 23 14 -51 15 -50 0 -76 -4 -72 -10z"/>
<path d="M3940 375 c0 -3 11 -10 25 -15 l25 -10 0 -144 c0 -158 -3 -176 -31
-176 -10 0 -19 -4 -19 -10 0 -6 32 -10 75 -10 77 0 92 8 53 25 -22 10 -23 16
-26 145 -3 156 -1 173 30 188 19 9 9 11 -54 11 -43 1 -78 -1 -78 -4z"/>
<path d="M4253 364 l27 -15 0 -120 c0 -192 28 -228 174 -220 17 0 41 14 62 35
l34 34 0 125 c0 105 3 128 18 147 17 21 19 21 55 7 l37 -16 0 -151 c0 -143 -1
-152 -20 -157 -40 -11 -18 -23 40 -23 33 0 60 4 60 10 0 6 -9 10 -20 10 -27 0
-31 25 -28 150 l3 105 105 -137 c58 -75 111 -137 118 -137 9 -1 12 40 12 172
0 170 0 174 23 185 18 9 11 11 -43 11 -54 0 -61 -2 -42 -11 30 -15 33 -34 30
-151 l-3 -98 -100 130 -100 131 -110 -1 c-86 0 -105 -3 -88 -11 29 -14 37 -56
31 -174 -6 -107 -20 -136 -73 -154 -41 -14 -89 0 -105 30 -13 24 -24 189 -16
242 5 33 13 48 29 56 18 9 6 11 -58 11 -76 0 -79 0 -52 -15z"/>
<path d="M4995 370 c3 -5 12 -10 20 -10 21 0 25 -25 25 -165 0 -147 -3 -165
-31 -165 -10 0 -19 -4 -19 -10 0 -6 32 -10 75 -10 77 0 92 8 53 25 -22 10 -23
16 -26 145 -3 156 -1 173 30 188 19 9 9 11 -55 11 -50 1 -76 -3 -72 -9z"/>
<path d="M5172 357 c19 -15 46 -67 88 -170 33 -82 65 -158 71 -169 14 -27 13
-29 79 142 67 174 79 200 96 200 8 0 14 5 14 10 0 6 -25 10 -55 10 -30 0 -55
-4 -55 -10 0 -5 7 -10 15 -10 8 0 15 -8 15 -19 0 -24 -76 -226 -85 -226 -4 0
-28 51 -53 114 l-45 114 24 18 c24 19 24 19 -56 19 l-80 0 27 -23z"/>
<path d="M5553 364 l28 -15 -3 -157 c-3 -154 -3 -157 -25 -160 -13 -2 -23 -8
-23 -13 0 -5 58 -9 135 -9 l135 0 10 25 c5 14 13 38 16 53 6 26 5 26 -29 -10
-33 -36 -38 -38 -95 -38 -70 0 -72 3 -72 91 l0 59 55 0 c49 0 56 -3 69 -27 15
-27 15 -26 15 42 0 68 0 69 -15 43 -13 -25 -20 -28 -70 -28 l-55 0 3 68 3 67
34 3 c59 6 101 -7 113 -34 16 -35 24 -29 20 16 l-4 40 -137 0 c-127 -1 -134
-2 -108 -16z"/>
<path d="M5867 368 c29 -14 33 -34 33 -170 0 -122 -9 -168 -35 -168 -8 0 -15
-4 -15 -10 0 -6 32 -10 75 -10 41 0 75 4 75 9 0 5 -10 11 -22 13 -21 3 -23 9
-26 76 -4 101 16 98 88 -13 l55 -85 48 0 c53 0 60 9 20 27 -16 7 -49 44 -76
82 l-48 70 30 16 c35 18 51 43 51 80 0 71 -45 95 -177 94 -76 0 -93 -3 -76
-11z m175 -49 c35 -46 6 -97 -64 -114 l-28 -7 0 77 0 76 37 -3 c25 -2 42 -11
55 -29z"/>
<path d="M6503 364 l28 -15 -3 -157 c-3 -154 -3 -157 -25 -160 -13 -2 -23 -8
-23 -13 0 -5 36 -9 80 -9 44 0 80 4 80 9 0 5 -10 11 -22 13 -23 3 -23 6 -26
160 l-3 157 28 15 c27 15 24 15 -57 15 -81 0 -84 0 -57 -15z"/>
<path d="M6660 333 c0 -48 5 -50 24 -11 9 18 22 24 54 26 l42 3 0 -145 c0
-158 -3 -176 -31 -176 -10 0 -19 -4 -19 -10 0 -6 32 -10 75 -10 43 0 75 4 75
10 0 6 -9 10 -19 10 -28 0 -31 18 -31 176 l0 144 40 0 c35 0 43 -5 60 -32 l20
-33 0 48 0 47 -145 0 -145 0 0 -47z"/>
<path d="M6974 365 c10 -8 22 -16 26 -17 4 -2 33 -44 64 -95 56 -89 57 -93 54
-155 -3 -57 -5 -63 -25 -66 -13 -2 -23 -8 -23 -13 0 -5 34 -9 75 -9 43 0 75 4
75 10 0 6 -7 10 -15 10 -20 0 -35 40 -35 90 0 48 73 178 128 228 l35 32 -61 0
c-35 0 -62 -4 -62 -10 0 -5 7 -10 15 -10 8 0 15 -7 15 -16 0 -19 -68 -134 -79
-134 -9 0 -81 123 -81 138 0 7 6 12 14 12 8 0 18 5 21 10 4 6 -24 10 -77 10
-74 -1 -81 -2 -64 -15z"/>
</g>
</svg>
